<?xml version="1.0" encoding="UTF-8" standalone="no"?>
<svg xmlns:dc="http://purl.org/dc/elements/1.1/" xmlns:cc="http://creativecommons.org/ns#" xmlns:rdf="http://www.w3.org/1999/02/22-rdf-syntax-ns#" xmlns:svg="http://www.w3.org/2000/svg" xmlns="http://www.w3.org/2000/svg" xmlns:sodipodi="http://sodipodi.sourceforge.net/DTD/sodipodi-0.dtd" xmlns:inkscape="http://www.inkscape.org/namespaces/inkscape" inkscape:export-ydpi="394.54666" inkscape:export-xdpi="394.54666" inkscape:export-filename="/Users/celineauzias/Dropbox/artwork/N2I/2020/n2i2020_affiche_hd.png" width="420.36478" height="721.35529" viewBox="0 0 111.22151 190.85859" version="1.1" id="svg1295" inkscape:version="1.0 (4035a4f, 2020-05-01)" sodipodi:docname="N2I2021.svg">
  <defs id="defs1289"/>
  <sodipodi:namedview fit-margin-bottom="0" fit-margin-right="0" fit-margin-left="0" fit-margin-top="0" units="px" id="base" pagecolor="#ffffff" bordercolor="#666666" borderopacity="1.0" inkscape:pageopacity="0.0" inkscape:pageshadow="2" inkscape:zoom="0.90813072" inkscape:cx="208.08414" inkscape:cy="291.7322" inkscape:document-units="px" inkscape:current-layer="layer1" inkscape:document-rotation="0" showgrid="false" inkscape:window-width="1434" inkscape:window-height="855" inkscape:window-x="0" inkscape:window-y="23" inkscape:window-maximized="1" inkscape:snap-global="false">
    <inkscape:grid originy="-21.16121" originx="-87.362886" type="xygrid" id="grid3480"/>
  </sodipodi:namedview>
  <metadata id="metadata1292">
    <rdf:RDF>
      <cc:Work rdf:about="">
        <dc:format>image/svg+xml</dc:format>
        <dc:type rdf:resource="http://purl.org/dc/dcmitype/StillImage"/>
        <dc:title/>
      </cc:Work>
    </rdf:RDF>
  </metadata>
  <g transform="translate(-43.681445,-10.655518)" inkscape:label="Calque 1" inkscape:groupmode="layer" id="layer1">
    <path inkscape:transform-center-y="-0.60078311" inkscape:transform-center-x="1.3922178" d="m 58.437608,53.936771 c -0.480242,0.38173 -4.970227,-2.568932 -5.583126,-2.542384 -0.612899,0.02655 -4.830932,3.354394 -5.342382,3.015619 -0.51145,-0.338776 0.907314,-5.52081 0.69267,-6.095508 -0.214645,-0.574698 -4.683059,-3.557925 -4.518911,-4.14903 0.164148,-0.591106 5.530978,-0.843117 6.011219,-1.224847 0.480242,-0.38173 1.936643,-5.553313 2.549542,-5.579861 0.612899,-0.02655 2.511017,4.999736 3.022467,5.338511 0.51145,0.338776 5.879971,0.125789 6.094615,0.700487 0.214644,0.574698 -3.979084,3.933122 -4.143232,4.524228 -0.164148,0.591105 1.697379,5.631054 1.217138,6.012785 z" inkscape:randomized="0" inkscape:rounded="0.1" inkscape:flatsided="false" sodipodi:arg2="1.5275087" sodipodi:arg1="0.89919017" sodipodi:r2="4.7442784" sodipodi:r1="9.3025064" sodipodi:cy="46.654552" sodipodi:cx="52.649178" sodipodi:sides="5" id="path4553" style="opacity:1;fill:#00ffff;fill-opacity:1;stroke-width:0.239808;stroke-linecap:round;stroke-linejoin:round;stroke-opacity:0.512129" sodipodi:type="star"/>
    <g id="g5794">
      <g transform="matrix(0.20755085,0,0,0.20760428,272.03387,-102.37766)" id="g4671" style="display:inline;fill:#00ffff;fill-opacity:1;stroke-width:0.954462">
        <g style="fill:#00ffff;fill-opacity:1;stroke-width:0.954462" id="g4665" transform="matrix(0.35593022,-0.29512082,0.29320436,0.35825668,-1541.0334,-953.79692)">
          <path id="path4663" transform="matrix(0.88729897,0.73092956,-0.73092956,0.88729897,9335.8685,1869.7382)" d="m -6072.7207,6716.0234 a 23.425975,49.129478 80.540549 0 0 -0.8418,0.012 23.425975,49.129478 80.540549 0 0 -14.4922,1.3554 23.425975,49.129478 80.540549 0 0 -44.3887,26.3633 c -0.5044,1.1301 -0.6977,2.4165 -0.4824,3.7344 l 3.4785,21.2851 c 0.586,3.5862 3.9451,6.002 7.5313,5.4161 l 20.75,-3.3907 5.8183,35.6133 c -27.1816,7.3326 -52.1498,19.6412 -73.7421,35.8203 l -12.0664,-14.6484 10.207,-8.4082 c 1.8411,-1.5167 2.1006,-4.2195 0.584,-6.0606 l -13.2969,-16.1425 c -0.9479,-1.1507 -2.3577,-1.6828 -3.7324,-1.5508 -0.8249,0.079 -1.6377,0.398 -2.3282,0.9668 l -42.7265,35.1972 c -1.8411,1.5167 -2.1026,4.2195 -0.586,6.0606 l 13.2969,16.1426 c 1.5167,1.8411 4.2195,2.1006 6.0606,0.5839 l 10.207,-8.4082 12.4766,15.1465 c -36.6778,36.2966 -59.2266,85.5028 -59.2266,139.6836 0,111.5789 95.6273,202.1387 213.4453,202.1387 80.1465,0 149.9825,-41.8986 186.4727,-103.8203 -232.972,78.662 -343.2034,-197.914 -202.4414,-299.1973 l 0.9336,-0.1523 -0.076,-0.4707 c 0.051,-0.037 0.1007,-0.075 0.1523,-0.1114 -0.057,0 -0.1131,0.01 -0.1699,0.014 l -5.7988,-35.498 19.8808,-3.2481 c 3.5862,-0.586 6.0018,-3.9451 5.4161,-7.5312 l -3.3497,-20.4942 h 0.012 a 23.425975,49.129478 80.540549 0 0 -0.035,-0.1465 l -0.1055,-0.6426 c -0.159,-0.973 -0.5265,-1.855 -1.0429,-2.6191 a 23.425975,49.129478 80.540549 0 0 -35.793,-12.9903 z m -11.2148,4.7598 c 0.1614,0.012 0.288,0.037 0.3769,0.078 -12.9935,3.5118 -36.478,17.0824 -40.4629,24.3633 -3.2361,5.9129 -3.2207,14.4219 -3.2207,14.4219 0,0 -1.318,-7.5168 -0.9805,-14.2813 0.5683,-11.3892 39.2823,-24.9457 44.2872,-24.582 z m -64.1739,119.6465 c 8.2128,0.2268 14.5803,10.166 14.2481,22.2441 -0.3317,12.0778 -7.2382,21.7465 -15.4512,21.5196 -8.2127,-0.2241 -14.58,-10.2583 -14.248,-22.336 0.3315,-12.0779 7.2383,-21.6519 15.4511,-21.4277 z m -17.8105,62.7129 c 9.7463,0.2674 17.3293,12.0995 16.9355,26.4316 -0.3941,14.3323 -8.6192,25.7244 -18.3652,25.457 -9.7455,-0.2673 -17.3218,-12.0974 -16.9277,-26.4296 0.3935,-14.3319 8.6119,-25.7265 18.3574,-25.459 z m -61.1739,50.8144 c 4.9628,42.3585 22.0727,83.2199 48.7676,116.4805 -5.6266,4.0947 -9.8418,9.8318 -11.1699,16.8418 -1.8372,9.699 2.3795,19.0486 9.2969,25.9531 6.9178,6.9043 16.6448,11.8827 27.9004,14.0156 11.2561,2.1314 22.13,1.0514 31.0937,-2.8437 1.0156,-0.4405 2.0418,-0.896 3.0117,-1.4219 10.0603,6.118 20.6376,11.4569 31.5196,15.9512 -0.3667,-1.6211 -0.5201,-3.1776 -0.2168,-4.7793 2.1705,-11.4569 21.5902,-17.4869 43.3183,-13.3711 21.7271,4.1157 37.5885,16.8301 35.418,28.2871 -0.4727,2.4957 -1.7999,4.7184 -3.7519,6.6445 28.8423,1.3533 57.9229,-2.7784 85.2324,-12.164 -42.0927,35.7954 -100.6468,51.3817 -154.961,41.2324 -47.9376,-9.0812 -91.7741,-37.8928 -119.25,-78.2109 -27.4754,-40.3184 -38.2572,-91.6501 -29.1777,-139.5879 0.8324,-4.3774 1.8253,-8.7214 2.9687,-13.0274 z m 82.586,117.5918 c 2.8929,-0.06 5.9088,0.183 8.9746,0.7637 16.3503,3.0972 27.9124,14.5926 25.8066,25.7109 -2.1064,11.1186 -17.0696,17.5955 -33.4199,14.4981 -16.3506,-3.0973 -27.9129,-14.5984 -25.8066,-25.7168 1.7113,-9.0336 11.9098,-14.9966 24.4453,-15.2559 z" style="opacity:1;fill:#00ffff;fill-opacity:1;fill-rule:nonzero;stroke:none;stroke-width:14.3169;stroke-linecap:round;stroke-linejoin:round;stroke-miterlimit:4;stroke-dasharray:none;stroke-dashoffset:0;stroke-opacity:1" inkscape:connector-curvature="0"/>
        </g>
        <path id="path4667" d="m -868.43109,612.42133 -0.45246,0.45542 -2.58231,2.59918 v 6.94195 l 1.83472,1.84671 1.20005,-1.2079 z m -1.19692,12.02671 -0.19053,0.19172 -1.64732,1.65606 v 6.94189 l 3.03477,3.05461 v -10.59786 z m 26.47535,14.3226 0.4452,0.45436 2.50464,2.55543 h 8.19011 l 2.94985,-3.00979 z m 14.18093,0.0792 -0.45453,0.46273 -2.50364,2.55437 v 6.82103 l 1.81092,1.82067 1.14725,-1.19744 z m -14.27206,0.006 v 0.6441 9.81412 l 1.18346,1.19124 1.80678,-1.81651 v -6.82316 z m 13.12794,11.812 -0.19467,0.19593 -1.61938,1.63104 v 6.82204 l 2.95817,3.0171 v -10.42796 z m -11.94756,0.006 -0.1874,0.19487 -0.99298,1.03485 v 10.42492 l 2.99024,-3.00984 v -6.82311 z m 1.86059,8.73129 -0.0776,0.0803 -2.87329,2.92852 h 14.09192 l -2.95091,-3.00878 h -8.19011 z m 42.13279,17.37097 -0.45246,0.45543 -3.5183,3.54236 v 9.45773 l 2.42178,2.4366 1.54898,-1.56012 z m -62.39052,16.17146 0.44525,0.45435 3.9573,4.03738 h 12.96127 l 4.40149,-4.49173 z m 60.84467,0.25633 -0.19053,0.19178 -2.23438,2.24696 v 9.45773 l 3.97076,3.99773 v -14.28296 z m -38.71389,0.10005 -0.45347,0.46065 -3.95629,4.0353 v 10.774 l 2.73344,2.7503 1.67632,-1.74981 z m -22.49625,0.005 v 0.64405 15.6243 l 1.73325,1.74459 2.72831,-2.74716 v -10.77506 z m 20.82306,18.72891 -0.19466,0.19487 -2.54191,2.55858 v 10.774 l 4.40976,4.49696 v -16.21521 z m -19.09288,0.005 -0.1874,0.19593 -1.54278,1.60703 v 16.21312 l 4.46156,-4.49077 v -10.77501 z m 3.03784,13.88698 -0.0776,0.0792 -4.32388,4.41255 h 21.76425 l -4.40149,-4.49173 h -12.96127 z" style="font-style:normal;font-variant:normal;font-weight:normal;font-stretch:normal;font-size:medium;line-height:100%;font-family:DS-Digital;-inkscape-font-specification:DS-Digital;text-align:start;writing-mode:lr-tb;text-anchor:start;fill:#00ffff;fill-opacity:1;stroke:none;stroke-width:1.51194;stroke-miterlimit:4;stroke-dasharray:none;stroke-opacity:1" inkscape:connector-curvature="0"/>
        <path id="path4669" d="m -866.86763,584.76204 a 4.1988041,4.2262486 0 0 0 -4.19856,4.22702 4.1988041,4.2262486 0 0 0 4.19856,4.22605 4.1988041,4.2262486 0 0 0 4.19962,-4.22605 4.1988041,4.2262486 0 0 0 -4.19962,-4.22702 z m 20.7682,2.5335 a 4.1988041,4.2262486 0 0 0 -4.19857,4.226 4.1988041,4.2262486 0 0 0 4.19857,4.22606 4.1988041,4.2262486 0 0 0 4.19856,-4.22606 4.1988041,4.2262486 0 0 0 -4.19856,-4.226 z m 20.0486,5.12852 a 4.1988041,4.2262486 0 0 0 -4.19862,4.22606 4.1988041,4.2262486 0 0 0 4.19862,4.22601 4.1988041,4.2262486 0 0 0 4.19856,-4.22601 4.1988041,4.2262486 0 0 0 -4.19856,-4.22606 z m 22.31506,1.62165 c -0.85377,0.0384 -1.68348,0.448 -2.23958,1.19226 l -13.23041,17.70756 c -0.98864,1.32315 -0.72649,3.18923 0.58807,4.18433 l 2.85151,2.1594 c 1.31456,0.9951 3.16852,0.73118 4.15716,-0.59197 l 13.23147,-17.70756 c 0.98863,-1.32315 0.72643,-3.1903 -0.58813,-4.1854 l -2.85251,-2.15833 c -0.57514,-0.43536 -1.25354,-0.63023 -1.91758,-0.60029 z m 11.37602,21.37393 c -2.31873,1.6e-4 -4.1984,1.89217 -4.19856,4.22606 1.6e-4,2.33388 1.87983,4.22584 4.19856,4.226 2.31878,-1e-4 4.1984,-1.89206 4.19856,-4.226 -1.6e-4,-2.33394 -1.87978,-4.22595 -4.19856,-4.22606 z m 13.81233,14.91148 a 4.1988041,4.2262486 0 0 0 -4.19856,4.226 4.1988041,4.2262486 0 0 0 4.19856,4.22601 4.1988041,4.2262486 0 0 0 4.19963,-4.22601 4.1988041,4.2262486 0 0 0 -4.19963,-4.226 z m 10.92351,19.64498 a 4.1988041,4.2262486 0 0 0 -4.19856,4.22601 4.1988041,4.2262486 0 0 0 4.19856,4.226 4.1988041,4.2262486 0 0 0 4.19861,-4.226 4.1988041,4.2262486 0 0 0 -4.19861,-4.22601 z m 17.32443,18.3506 c -0.19758,-0.005 -0.39844,0.0139 -0.60053,0.0523 l -21.63172,4.102 c -1.61636,0.30655 -2.67249,1.86331 -2.36798,3.49028 l 0.66059,3.52983 c 0.30456,1.62698 1.85121,2.68995 3.46757,2.38346 l 21.63173,-4.102 c 1.61641,-0.3065 2.67253,-1.86331 2.36797,-3.49024 l -0.66059,-3.52988 c -0.26644,-1.42357 -1.48399,-2.41515 -2.86704,-2.43553 z m -8.37645,22.99872 a 4.1988041,4.2262486 0 0 0 -4.19856,4.22601 4.1988041,4.2262486 0 0 0 4.19856,4.226 4.1988041,4.2262486 0 0 0 4.19962,-4.226 4.1988041,4.2262486 0 0 0 -4.19962,-4.22601 z m -1.62559,20.47766 a 4.1988041,4.2262486 0 0 0 -4.19856,4.22601 4.1988041,4.2262486 0 0 0 4.19856,4.22605 4.1988041,4.2262486 0 0 0 4.19963,-4.22605 4.1988041,4.2262486 0 0 0 -4.19963,-4.22601 z m -6.63588,20.54233 a 4.1988041,4.2262486 0 0 0 -4.19861,4.226 4.1988041,4.2262486 0 0 0 4.19861,4.22601 4.1988041,4.2262486 0 0 0 4.19857,-4.22601 4.1988041,4.2262486 0 0 0 -4.19857,-4.226 z" style="font-style:normal;font-variant:normal;font-weight:normal;font-stretch:normal;font-size:medium;line-height:100%;font-family:DS-Digital;-inkscape-font-specification:DS-Digital;text-align:start;writing-mode:lr-tb;text-anchor:start;fill:#00ffff;fill-opacity:1;stroke:none;stroke-width:1.51194;stroke-miterlimit:4;stroke-dasharray:none;stroke-opacity:1" inkscape:connector-curvature="0"/>
      </g>
      <g style="display:inline;fill:#133571;fill-opacity:1;stroke-width:0.954462" id="g7130" transform="matrix(0.20755085,0,0,0.20760428,275.93099,-100.15073)">
        <g transform="matrix(0.35593022,-0.29512082,0.29320436,0.35825668,-1541.0334,-953.79692)" id="g7124" style="fill:#133571;fill-opacity:1;stroke-width:0.954462">
          <path inkscape:connector-curvature="0" style="opacity:1;fill:#133571;fill-opacity:1;fill-rule:nonzero;stroke:none;stroke-width:14.3169;stroke-linecap:round;stroke-linejoin:round;stroke-miterlimit:4;stroke-dasharray:none;stroke-dashoffset:0;stroke-opacity:1" d="m -6072.7207,6716.0234 a 23.425975,49.129478 80.540549 0 0 -0.8418,0.012 23.425975,49.129478 80.540549 0 0 -14.4922,1.3554 23.425975,49.129478 80.540549 0 0 -44.3887,26.3633 c -0.5044,1.1301 -0.6977,2.4165 -0.4824,3.7344 l 3.4785,21.2851 c 0.586,3.5862 3.9451,6.002 7.5313,5.4161 l 20.75,-3.3907 5.8183,35.6133 c -27.1816,7.3326 -52.1498,19.6412 -73.7421,35.8203 l -12.0664,-14.6484 10.207,-8.4082 c 1.8411,-1.5167 2.1006,-4.2195 0.584,-6.0606 l -13.2969,-16.1425 c -0.9479,-1.1507 -2.3577,-1.6828 -3.7324,-1.5508 -0.8249,0.079 -1.6377,0.398 -2.3282,0.9668 l -42.7265,35.1972 c -1.8411,1.5167 -2.1026,4.2195 -0.586,6.0606 l 13.2969,16.1426 c 1.5167,1.8411 4.2195,2.1006 6.0606,0.5839 l 10.207,-8.4082 12.4766,15.1465 c -36.6778,36.2966 -59.2266,85.5028 -59.2266,139.6836 0,111.5789 95.6273,202.1387 213.4453,202.1387 80.1465,0 149.9825,-41.8986 186.4727,-103.8203 -232.972,78.662 -343.2034,-197.914 -202.4414,-299.1973 l 0.9336,-0.1523 -0.076,-0.4707 c 0.051,-0.037 0.1007,-0.075 0.1523,-0.1114 -0.057,0 -0.1131,0.01 -0.1699,0.014 l -5.7988,-35.498 19.8808,-3.2481 c 3.5862,-0.586 6.0018,-3.9451 5.4161,-7.5312 l -3.3497,-20.4942 h 0.012 a 23.425975,49.129478 80.540549 0 0 -0.035,-0.1465 l -0.1055,-0.6426 c -0.159,-0.973 -0.5265,-1.855 -1.0429,-2.6191 a 23.425975,49.129478 80.540549 0 0 -35.793,-12.9903 z m -11.2148,4.7598 c 0.1614,0.012 0.288,0.037 0.3769,0.078 -12.9935,3.5118 -36.478,17.0824 -40.4629,24.3633 -3.2361,5.9129 -3.2207,14.4219 -3.2207,14.4219 0,0 -1.318,-7.5168 -0.9805,-14.2813 0.5683,-11.3892 39.2823,-24.9457 44.2872,-24.582 z m -64.1739,119.6465 c 8.2128,0.2268 14.5803,10.166 14.2481,22.2441 -0.3317,12.0778 -7.2382,21.7465 -15.4512,21.5196 -8.2127,-0.2241 -14.58,-10.2583 -14.248,-22.336 0.3315,-12.0779 7.2383,-21.6519 15.4511,-21.4277 z m -17.8105,62.7129 c 9.7463,0.2674 17.3293,12.0995 16.9355,26.4316 -0.3941,14.3323 -8.6192,25.7244 -18.3652,25.457 -9.7455,-0.2673 -17.3218,-12.0974 -16.9277,-26.4296 0.3935,-14.3319 8.6119,-25.7265 18.3574,-25.459 z m -61.1739,50.8144 c 4.9628,42.3585 22.0727,83.2199 48.7676,116.4805 -5.6266,4.0947 -9.8418,9.8318 -11.1699,16.8418 -1.8372,9.699 2.3795,19.0486 9.2969,25.9531 6.9178,6.9043 16.6448,11.8827 27.9004,14.0156 11.2561,2.1314 22.13,1.0514 31.0937,-2.8437 1.0156,-0.4405 2.0418,-0.896 3.0117,-1.4219 10.0603,6.118 20.6376,11.4569 31.5196,15.9512 -0.3667,-1.6211 -0.5201,-3.1776 -0.2168,-4.7793 2.1705,-11.4569 21.5902,-17.4869 43.3183,-13.3711 21.7271,4.1157 37.5885,16.8301 35.418,28.2871 -0.4727,2.4957 -1.7999,4.7184 -3.7519,6.6445 28.8423,1.3533 57.9229,-2.7784 85.2324,-12.164 -42.0927,35.7954 -100.6468,51.3817 -154.961,41.2324 -47.9376,-9.0812 -91.7741,-37.8928 -119.25,-78.2109 -27.4754,-40.3184 -38.2572,-91.6501 -29.1777,-139.5879 0.8324,-4.3774 1.8253,-8.7214 2.9687,-13.0274 z m 82.586,117.5918 c 2.8929,-0.06 5.9088,0.183 8.9746,0.7637 16.3503,3.0972 27.9124,14.5926 25.8066,25.7109 -2.1064,11.1186 -17.0696,17.5955 -33.4199,14.4981 -16.3506,-3.0973 -27.9129,-14.5984 -25.8066,-25.7168 1.7113,-9.0336 11.9098,-14.9966 24.4453,-15.2559 z" transform="matrix(0.88729897,0.73092956,-0.73092956,0.88729897,9335.8685,1869.7382)" id="path7122"/>
        </g>
        <path inkscape:connector-curvature="0" style="font-style:normal;font-variant:normal;font-weight:normal;font-stretch:normal;font-size:medium;line-height:100%;font-family:DS-Digital;-inkscape-font-specification:DS-Digital;text-align:start;writing-mode:lr-tb;text-anchor:start;fill:#133571;fill-opacity:1;stroke:none;stroke-width:1.51194;stroke-miterlimit:4;stroke-dasharray:none;stroke-opacity:1" d="m -868.43109,612.42133 -0.45246,0.45542 -2.58231,2.59918 v 6.94195 l 1.83472,1.84671 1.20005,-1.2079 z m -1.19692,12.02671 -0.19053,0.19172 -1.64732,1.65606 v 6.94189 l 3.03477,3.05461 v -10.59786 z m 26.47535,14.3226 0.4452,0.45436 2.50464,2.55543 h 8.19011 l 2.94985,-3.00979 z m 14.18093,0.0792 -0.45453,0.46273 -2.50364,2.55437 v 6.82103 l 1.81092,1.82067 1.14725,-1.19744 z m -14.27206,0.006 v 0.6441 9.81412 l 1.18346,1.19124 1.80678,-1.81651 v -6.82316 z m 13.12794,11.812 -0.19467,0.19593 -1.61938,1.63104 v 6.82204 l 2.95817,3.0171 v -10.42796 z m -11.94756,0.006 -0.1874,0.19487 -0.99298,1.03485 v 10.42492 l 2.99024,-3.00984 v -6.82311 z m 1.86059,8.73129 -0.0776,0.0803 -2.87329,2.92852 h 14.09192 l -2.95091,-3.00878 h -8.19011 z m 42.13279,17.37097 -0.45246,0.45543 -3.5183,3.54236 v 9.45773 l 2.42178,2.4366 1.54898,-1.56012 z m -62.39052,16.17146 0.44525,0.45435 3.9573,4.03738 h 12.96127 l 4.40149,-4.49173 z m 60.84467,0.25633 -0.19053,0.19178 -2.23438,2.24696 v 9.45773 l 3.97076,3.99773 v -14.28296 z m -38.71389,0.10005 -0.45347,0.46065 -3.95629,4.0353 v 10.774 l 2.73344,2.7503 1.67632,-1.74981 z m -22.49625,0.005 v 0.64405 15.6243 l 1.73325,1.74459 2.72831,-2.74716 v -10.77506 z m 20.82306,18.72891 -0.19466,0.19487 -2.54191,2.55858 v 10.774 l 4.40976,4.49696 v -16.21521 z m -19.09288,0.005 -0.1874,0.19593 -1.54278,1.60703 v 16.21312 l 4.46156,-4.49077 v -10.77501 z m 3.03784,13.88698 -0.0776,0.0792 -4.32388,4.41255 h 21.76425 l -4.40149,-4.49173 h -12.96127 z" id="path7126"/>
        <path inkscape:connector-curvature="0" style="font-style:normal;font-variant:normal;font-weight:normal;font-stretch:normal;font-size:medium;line-height:100%;font-family:DS-Digital;-inkscape-font-specification:DS-Digital;text-align:start;writing-mode:lr-tb;text-anchor:start;fill:#133571;fill-opacity:1;stroke:none;stroke-width:1.51194;stroke-miterlimit:4;stroke-dasharray:none;stroke-opacity:1" d="m -866.86763,584.76204 a 4.1988041,4.2262486 0 0 0 -4.19856,4.22702 4.1988041,4.2262486 0 0 0 4.19856,4.22605 4.1988041,4.2262486 0 0 0 4.19962,-4.22605 4.1988041,4.2262486 0 0 0 -4.19962,-4.22702 z m 20.7682,2.5335 a 4.1988041,4.2262486 0 0 0 -4.19857,4.226 4.1988041,4.2262486 0 0 0 4.19857,4.22606 4.1988041,4.2262486 0 0 0 4.19856,-4.22606 4.1988041,4.2262486 0 0 0 -4.19856,-4.226 z m 20.0486,5.12852 a 4.1988041,4.2262486 0 0 0 -4.19862,4.22606 4.1988041,4.2262486 0 0 0 4.19862,4.22601 4.1988041,4.2262486 0 0 0 4.19856,-4.22601 4.1988041,4.2262486 0 0 0 -4.19856,-4.22606 z m 22.31506,1.62165 c -0.85377,0.0384 -1.68348,0.448 -2.23958,1.19226 l -13.23041,17.70756 c -0.98864,1.32315 -0.72649,3.18923 0.58807,4.18433 l 2.85151,2.1594 c 1.31456,0.9951 3.16852,0.73118 4.15716,-0.59197 l 13.23147,-17.70756 c 0.98863,-1.32315 0.72643,-3.1903 -0.58813,-4.1854 l -2.85251,-2.15833 c -0.57514,-0.43536 -1.25354,-0.63023 -1.91758,-0.60029 z m 11.37602,21.37393 c -2.31873,1.6e-4 -4.1984,1.89217 -4.19856,4.22606 1.6e-4,2.33388 1.87983,4.22584 4.19856,4.226 2.31878,-1e-4 4.1984,-1.89206 4.19856,-4.226 -1.6e-4,-2.33394 -1.87978,-4.22595 -4.19856,-4.22606 z m 13.81233,14.91148 a 4.1988041,4.2262486 0 0 0 -4.19856,4.226 4.1988041,4.2262486 0 0 0 4.19856,4.22601 4.1988041,4.2262486 0 0 0 4.19963,-4.22601 4.1988041,4.2262486 0 0 0 -4.19963,-4.226 z m 10.92351,19.64498 a 4.1988041,4.2262486 0 0 0 -4.19856,4.22601 4.1988041,4.2262486 0 0 0 4.19856,4.226 4.1988041,4.2262486 0 0 0 4.19861,-4.226 4.1988041,4.2262486 0 0 0 -4.19861,-4.22601 z m 17.32443,18.3506 c -0.19758,-0.005 -0.39844,0.0139 -0.60053,0.0523 l -21.63172,4.102 c -1.61636,0.30655 -2.67249,1.86331 -2.36798,3.49028 l 0.66059,3.52983 c 0.30456,1.62698 1.85121,2.68995 3.46757,2.38346 l 21.63173,-4.102 c 1.61641,-0.3065 2.67253,-1.86331 2.36797,-3.49024 l -0.66059,-3.52988 c -0.26644,-1.42357 -1.48399,-2.41515 -2.86704,-2.43553 z m -8.37645,22.99872 a 4.1988041,4.2262486 0 0 0 -4.19856,4.22601 4.1988041,4.2262486 0 0 0 4.19856,4.226 4.1988041,4.2262486 0 0 0 4.19962,-4.226 4.1988041,4.2262486 0 0 0 -4.19962,-4.22601 z m -1.62559,20.47766 a 4.1988041,4.2262486 0 0 0 -4.19856,4.22601 4.1988041,4.2262486 0 0 0 4.19856,4.22605 4.1988041,4.2262486 0 0 0 4.19963,-4.22605 4.1988041,4.2262486 0 0 0 -4.19963,-4.22601 z m -6.63588,20.54233 a 4.1988041,4.2262486 0 0 0 -4.19861,4.226 4.1988041,4.2262486 0 0 0 4.19861,4.22601 4.1988041,4.2262486 0 0 0 4.19857,-4.22601 4.1988041,4.2262486 0 0 0 -4.19857,-4.226 z" id="path7128"/>
      </g>
    </g>
    <g id="g4613" transform="matrix(0.97744149,0,0,0.97744149,-129.24748,-355.73947)">
      <path id="path7645" style="font-style:normal;font-variant:normal;font-weight:normal;font-stretch:normal;font-size:47.5429px;line-height:1.25;font-family:'Shark Random Funnyness 2';-inkscape-font-specification:'Shark Random Funnyness 2, Normal';font-variant-ligatures:normal;font-variant-caps:normal;font-variant-numeric:normal;font-variant-east-asian:normal;text-align:end;letter-spacing:0.466744px;text-anchor:end;fill:#00ffff;fill-opacity:0.991837;stroke-width:1.18858" d="m 283.73074,533.33434 -13.31238,9.71618 2.73627,5.40639 4.83383,-3.25612 -0.68834,24.63054 5.60998,-0.0274 z m -49.05438,1.85517 c -1.71152,0.008 -3.29444,0.41233 -4.74854,1.2118 -1.45427,0.76779 -2.73284,1.89907 -3.83491,3.39412 -1.10222,1.46336 -2.02795,3.2748 -2.77812,5.43378 -0.71865,2.12709 -1.21388,4.56991 -1.4857,7.32874 -0.20628,3.20228 -0.0983,5.91156 0.32453,8.12819 0.42283,2.21663 1.09719,4.02042 2.02313,5.41052 0.95763,1.38996 2.13545,2.39805 3.53312,3.02514 1.39766,0.62709 2.96812,0.93657 4.71134,0.9281 1.61644,-0.008 3.21541,-0.38002 4.7966,-1.11672 1.58105,-0.76838 2.98631,-1.83709 4.21577,-3.20601 1.261,-1.40073 2.26679,-3.08568 3.0179,-5.05447 0.78283,-1.96892 1.16807,-4.18939 1.156,-6.6616 0.27445,-2.22004 0.21647,-4.4386 -0.17467,-6.65541 -0.3596,-2.24864 -1.01956,-4.27363 -1.9792,-6.0756 -0.95965,-1.80197 -2.18673,-3.27009 -3.68195,-4.40386 -1.46352,-1.1339 -3.16191,-1.69613 -5.0953,-1.68672 z m 24.70392,0.40048 c -1.08843,0.0226 -2.20079,0.20325 -3.33623,0.54157 -1.26609,0.35481 -2.48353,0.86762 -3.653,1.53893 -1.13778,0.67116 -2.17991,1.45298 -3.12643,2.34508 -0.94652,0.89209 -1.71871,1.83089 -2.31613,2.81635 l 3.35328,5.21365 c 1.35393,-1.84494 2.66275,-3.19879 3.92637,-4.06072 1.29533,-0.8621 2.46559,-1.35901 3.5109,-1.49088 1.07701,-0.13202 2.01305,0.0221 2.80758,0.46199 0.79438,0.40817 1.38361,0.95975 1.76734,1.65518 0.41526,0.6636 0.59319,1.40753 0.53382,2.23192 -0.0595,0.79267 -0.40478,1.5076 -1.0356,2.14458 l -13.56403,16.65893 1.20923,4.22559 20.82302,-0.24445 -0.51006,-7.03369 -12.21372,0.96274 c 2.45955,-2.61101 4.60274,-5.04621 6.43011,-7.30549 1.82735,-2.25927 3.17987,-4.3892 4.05763,-6.39032 0.90926,-2.03293 1.28037,-3.95245 1.1131,-5.75828 -0.16743,-1.83754 -1.01611,-3.63993 -2.54609,-5.40743 -0.9244,-1.07315 -1.97413,-1.84488 -3.14917,-2.3146 -1.14348,-0.50157 -2.34888,-0.76512 -3.61683,-0.79065 -0.15453,-0.003 -0.30959,-0.003 -0.46509,0 z m -49.77577,0.24238 c -1.08844,0.0226 -2.20079,0.20323 -3.33623,0.54155 -1.26609,0.35483 -2.48353,0.86762 -3.65301,1.53892 -1.13778,0.67117 -2.1799,1.45302 -3.12642,2.34509 -0.94653,0.89209 -1.71871,1.83089 -2.31614,2.81638 l 3.35329,5.21361 c 1.35392,-1.84494 2.66274,-3.19878 3.92637,-4.06072 1.29533,-0.86209 2.46558,-1.359 3.5109,-1.49087 1.077,-0.13203 2.01305,0.0221 2.80758,0.46199 0.79438,0.40817 1.3836,0.95978 1.76733,1.65521 0.41528,0.66357 0.5932,1.4075 0.53382,2.23189 -0.0595,0.79269 -0.40479,1.50759 -1.0356,2.14458 l -13.56403,16.65893 1.20923,4.22558 20.82302,-0.24444 -0.51005,-7.03366 -12.21372,0.96271 c 2.45955,-2.61101 4.60275,-5.04618 6.4301,-7.30549 1.82734,-2.25928 3.17989,-4.3892 4.05763,-6.39029 0.90927,-2.03296 1.28039,-3.95248 1.11311,-5.75832 -0.16742,-1.83753 -1.01611,-3.63992 -2.54609,-5.40742 -0.92441,-1.07315 -1.97414,-1.84488 -3.14917,-2.3146 -1.14348,-0.50154 -2.34939,-0.76512 -3.61735,-0.79063 -0.15453,-0.003 -0.30908,-0.003 -0.46457,0 z m 24.70082,6.70399 c 0.39373,0.003 0.79891,0.0563 1.21543,0.16121 1.84061,0.46646 3.08256,1.66484 3.72587,3.59513 0.64316,1.89862 0.76734,4.62391 0.37259,8.17573 -0.12246,0.88808 -0.41866,1.87182 -0.88884,2.95177 -0.47018,1.07993 -1.05163,2.06555 -1.74459,2.9564 -0.66143,0.859 -1.41893,1.54387 -2.27222,2.05518 -0.82159,0.51112 -1.66083,0.65797 -2.51767,0.44027 -0.63468,-0.15539 -1.2852,-0.3901 -1.95234,-0.70382 -0.63544,-0.31388 -1.19276,-0.83397 -1.67173,-1.56064 -0.47913,-0.75835 -0.83273,-1.78666 -1.06092,-3.08507 -0.22837,-1.33012 -0.23721,-3.07332 -0.0258,-5.22965 0.0568,-1.36321 0.30401,-2.6797 0.74156,-3.94965 0.43756,-1.26995 1.0027,-2.36614 1.6955,-3.28869 0.72436,-0.95438 1.56124,-1.65589 2.50993,-2.10426 0.59292,-0.28022 1.21705,-0.41817 1.87327,-0.41391 z"/>
      <path d="m 281.73528,526.74186 -13.31238,9.71618 2.73627,5.40639 4.83383,-3.25612 -0.68834,24.63054 5.60998,-0.0274 z m -49.05438,1.85517 c -1.71152,0.008 -3.29444,0.41233 -4.74854,1.2118 -1.45427,0.76779 -2.73284,1.89907 -3.83491,3.39412 -1.10222,1.46336 -2.02795,3.2748 -2.77812,5.43378 -0.71865,2.12709 -1.21388,4.56991 -1.4857,7.32874 -0.20628,3.20228 -0.0983,5.91156 0.32453,8.12819 0.42283,2.21663 1.09719,4.02042 2.02313,5.41052 0.95763,1.38996 2.13545,2.39805 3.53312,3.02514 1.39766,0.62709 2.96812,0.93657 4.71134,0.9281 1.61644,-0.008 3.21541,-0.38002 4.7966,-1.11672 1.58105,-0.76838 2.98631,-1.83709 4.21577,-3.20601 1.261,-1.40073 2.26679,-3.08568 3.0179,-5.05447 0.78283,-1.96892 1.16807,-4.18939 1.156,-6.6616 0.27445,-2.22004 0.21647,-4.4386 -0.17467,-6.65541 -0.3596,-2.24864 -1.01956,-4.27363 -1.9792,-6.0756 -0.95965,-1.80197 -2.18673,-3.27009 -3.68195,-4.40386 -1.46352,-1.1339 -3.16191,-1.69613 -5.0953,-1.68672 z m 24.70392,0.40048 c -1.08843,0.0226 -2.20079,0.20325 -3.33623,0.54157 -1.26609,0.35481 -2.48353,0.86762 -3.653,1.53893 -1.13778,0.67116 -2.17991,1.45298 -3.12643,2.34508 -0.94652,0.89209 -1.71871,1.83089 -2.31613,2.81635 l 3.35328,5.21365 c 1.35393,-1.84494 2.66275,-3.19879 3.92637,-4.06072 1.29533,-0.8621 2.46559,-1.35901 3.5109,-1.49088 1.07701,-0.13202 2.01305,0.0221 2.80758,0.46199 0.79438,0.40817 1.38361,0.95975 1.76734,1.65518 0.41526,0.6636 0.59319,1.40753 0.53382,2.23192 -0.0595,0.79267 -0.40478,1.5076 -1.0356,2.14458 l -13.56403,16.65893 1.20923,4.22559 20.82302,-0.24445 -0.51006,-7.03369 -12.21372,0.96274 c 2.45955,-2.61101 4.60274,-5.04621 6.43011,-7.30549 1.82735,-2.25927 3.17987,-4.3892 4.05763,-6.39032 0.90926,-2.03293 1.28037,-3.95245 1.1131,-5.75828 -0.16743,-1.83754 -1.01611,-3.63993 -2.54609,-5.40743 -0.9244,-1.07315 -1.97413,-1.84488 -3.14917,-2.3146 -1.14348,-0.50157 -2.34888,-0.76512 -3.61683,-0.79065 -0.15453,-0.003 -0.30959,-0.003 -0.46509,0 z m -49.77577,0.24238 c -1.08844,0.0226 -2.20079,0.20323 -3.33623,0.54155 -1.26609,0.35483 -2.48353,0.86762 -3.65301,1.53892 -1.13778,0.67117 -2.1799,1.45302 -3.12642,2.34509 -0.94653,0.89209 -1.71871,1.83089 -2.31614,2.81638 l 3.35329,5.21361 c 1.35392,-1.84494 2.66274,-3.19878 3.92637,-4.06072 1.29533,-0.86209 2.46558,-1.359 3.5109,-1.49087 1.077,-0.13203 2.01305,0.0221 2.80758,0.46199 0.79438,0.40817 1.3836,0.95978 1.76733,1.65521 0.41528,0.66357 0.5932,1.4075 0.53382,2.23189 -0.0595,0.79269 -0.40479,1.50759 -1.0356,2.14458 l -13.56403,16.65893 1.20923,4.22558 20.82302,-0.24444 -0.51005,-7.03366 -12.21372,0.96271 c 2.45955,-2.61101 4.60275,-5.04618 6.4301,-7.30549 1.82734,-2.25928 3.17989,-4.3892 4.05763,-6.39029 0.90927,-2.03296 1.28039,-3.95248 1.11311,-5.75832 -0.16742,-1.83753 -1.01611,-3.63992 -2.54609,-5.40742 -0.92441,-1.07315 -1.97414,-1.84488 -3.14917,-2.3146 -1.14348,-0.50154 -2.34939,-0.76512 -3.61735,-0.79063 -0.15453,-0.003 -0.30908,-0.003 -0.46457,0 z m 24.70082,6.70399 c 0.39373,0.003 0.79891,0.0563 1.21543,0.16121 1.84061,0.46646 3.08256,1.66484 3.72587,3.59513 0.64316,1.89862 0.76734,4.62391 0.37259,8.17573 -0.12246,0.88808 -0.41866,1.87182 -0.88884,2.95177 -0.47018,1.07993 -1.05163,2.06555 -1.74459,2.9564 -0.66143,0.859 -1.41893,1.54387 -2.27222,2.05518 -0.82159,0.51112 -1.66083,0.65797 -2.51767,0.44027 -0.63468,-0.15539 -1.2852,-0.3901 -1.95234,-0.70382 -0.63544,-0.31388 -1.19276,-0.83397 -1.67173,-1.56064 -0.47913,-0.75835 -0.83273,-1.78666 -1.06092,-3.08507 -0.22837,-1.33012 -0.23721,-3.07332 -0.0258,-5.22965 0.0568,-1.36321 0.30401,-2.6797 0.74156,-3.94965 0.43756,-1.26995 1.0027,-2.36614 1.6955,-3.28869 0.72436,-0.95438 1.56124,-1.65589 2.50993,-2.10426 0.59292,-0.28022 1.21705,-0.41817 1.87327,-0.41391 z" style="font-style:normal;font-variant:normal;font-weight:normal;font-stretch:normal;font-size:47.54290000000000305px;line-height:1.25;font-family:'Shark Random Funnyness 2';-inkscape-font-specification:'Shark Random Funnyness 2, Normal';font-variant-ligatures:normal;font-variant-caps:normal;font-variant-numeric:normal;font-variant-east-asian:normal;text-align:end;letter-spacing:0.46674399999999999px;text-anchor:end;fill:#ff00ff;fill-opacity:1;stroke-width:1.18858" id="path7659"/>
      <path transform="matrix(0.26458333,0,0,0.26458333,133.65039,367.62198)" d="m 577.70703,609.62695 -50.31445,36.72266 10.3418,20.43359 18.26953,-12.30664 -2.60157,93.0918 21.20313,-0.10352 z m -185.4043,7.01172 c -6.46876,0.0315 -12.45143,1.55845 -17.94726,4.58008 -5.49644,2.90182 -10.3269,7.1775 -14.49219,12.82813 -4.16587,5.53083 -7.66663,12.37726 -10.50195,20.5371 -2.71615,8.03944 -4.58786,17.27209 -5.61524,27.69922 -0.77964,12.10306 -0.36962,22.34288 1.22852,30.72071 1.59811,8.37782 4.14687,15.19527 7.64648,20.44921 3.61941,5.25335 8.071,9.06538 13.35352,11.43555 5.28249,2.37007 11.21809,3.53786 17.80664,3.50586 6.10938,-0.0297 12.15079,-1.43635 18.12695,-4.2207 5.97561,-2.90417 11.28682,-6.94337 15.9336,-12.11719 4.76601,-5.29416 8.56935,-11.66243 11.4082,-19.10352 2.95874,-7.44163 4.41475,-15.83396 4.36914,-25.17773 1.03728,-8.39065 0.81622,-16.77389 -0.66211,-25.15234 -1.35912,-8.49877 -3.85153,-16.15421 -7.47851,-22.96485 -3.62702,-6.81063 -8.26677,-12.35943 -13.91797,-16.64453 -5.53142,-4.2856 -11.95053,-6.41053 -19.25782,-6.375 z m 93.36915,1.51367 c -4.11378,0.0856 -8.31602,0.76816 -12.60743,2.04688 -4.78523,1.34103 -9.38853,3.28116 -13.80859,5.81836 -4.30027,2.53664 -8.23901,5.48966 -11.81641,8.86133 -3.57742,3.37166 -6.49396,6.9199 -8.75195,10.64453 l 12.67383,19.70508 c 5.1172,-6.97303 10.06393,-12.08801 14.83984,-15.34571 4.89572,-3.25828 9.31874,-5.1383 13.26953,-5.63672 4.07058,-0.49899 7.60837,0.0836 10.61133,1.7461 3.00238,1.5427 5.2274,3.62745 6.67774,6.25586 1.56953,2.50804 2.242,5.31978 2.01757,8.43554 -0.225,2.99596 -1.52795,5.69796 -3.91211,8.10547 l -51.26562,62.96289 4.57031,15.97071 78.69922,-0.92383 -1.92578,-26.58399 -46.16211,3.63868 c 9.29592,-9.8684 17.39623,-19.07227 24.30273,-27.61133 6.90651,-8.53901 12.0185,-16.58911 15.33594,-24.15235 3.43663,-7.68355 4.83925,-14.93842 4.20703,-21.76367 -0.63279,-6.94501 -3.84042,-13.75718 -9.62304,-20.4375 -3.49382,-4.05601 -7.4613,-6.97275 -11.90235,-8.74805 -4.32181,-1.89568 -8.87961,-2.89182 -13.67187,-2.98828 -0.58406,-0.0121 -1.17013,-0.0122 -1.75781,0 z m -188.12891,0.91602 c -4.11377,0.0856 -8.31602,0.76816 -12.60742,2.04687 -4.78524,1.34103 -9.38854,3.27921 -13.8086,5.81641 -4.30027,2.53664 -8.239,5.49162 -11.8164,8.86328 -3.57743,3.37167 -6.49397,6.91991 -8.75196,10.64453 l 12.67383,19.70508 c 5.11721,-6.97303 10.06393,-12.08995 14.83985,-15.34765 4.89572,-3.25829 9.31874,-5.13635 13.26953,-5.63477 4.07057,-0.499 7.60836,0.0836 10.61132,1.74609 3.00239,1.54271 5.22741,3.62745 6.67774,6.25586 1.56954,2.50805 2.24201,5.31978 2.01758,8.43555 -0.22501,2.99596 -1.52991,5.69796 -3.91406,8.10547 l -51.26368,62.96289 4.57032,15.9707 78.69921,-0.92383 -1.92578,-26.58398 -46.16211,3.63867 c 9.29593,-9.8684 17.39623,-19.07227 24.30274,-27.61133 6.90651,-8.53901 12.01849,-16.5891 15.33594,-24.15234 3.43662,-7.68355 4.83924,-14.93845 4.20703,-21.76367 -0.6328,-6.94501 -3.84042,-13.75716 -9.62305,-20.4375 -3.49382,-4.05602 -7.4613,-6.97275 -11.90234,-8.74805 -4.32182,-1.89568 -8.87961,-2.89183 -13.67188,-2.98828 -0.58406,-0.0121 -1.17013,-0.0122 -1.75781,0 z m 93.35937,25.33789 c 1.48812,0.01 3.01951,0.21272 4.59375,0.60937 6.95665,1.76303 11.65061,6.29225 14.08203,13.5879 2.43085,7.17583 2.90019,17.47613 1.40821,30.90039 -0.46282,3.35649 -1.58232,7.07458 -3.35938,11.15625 -1.77706,4.08166 -3.97469,7.80682 -6.59375,11.17382 -2.49988,3.24662 -5.36284,5.83516 -8.58789,7.76758 -3.10523,1.93185 -6.27715,2.48684 -9.51562,1.66406 -2.39877,-0.58731 -4.85941,-1.47446 -7.38086,-2.66015 -2.40166,-1.18624 -4.50807,-3.15198 -6.31836,-5.89844 -1.81087,-2.86624 -3.1473,-6.75277 -4.00977,-11.66015 -0.86314,-5.02715 -0.89459,-11.61571 -0.0957,-19.76563 0.2145,-5.15223 1.14899,-10.12791 2.80273,-14.92773 1.65377,-4.79985 3.78973,-8.9429 6.40821,-12.42969 2.73774,-3.60716 5.89879,-6.25854 9.48437,-7.95313 2.24098,-1.05911 4.60183,-1.58046 7.08203,-1.56445 z" style="font-style:normal;font-variant:normal;font-weight:normal;font-stretch:normal;font-size:47.54290000000000305px;line-height:1.25;font-family:'Shark Random Funnyness 2';-inkscape-font-specification:'Shark Random Funnyness 2, Normal';font-variant-ligatures:normal;font-variant-caps:normal;font-variant-numeric:normal;font-variant-east-asian:normal;text-align:end;letter-spacing:0.46674399999999999px;text-anchor:end;fill:#133571;fill-opacity:1;stroke-width:4.49227" id="path4111"/>
      <path transform="matrix(0.26458333,0,0,0.26458333,133.65039,367.62198)" d="m 392.30273,616.63867 c -6.46876,0.0315 -12.45143,1.55845 -17.94726,4.58008 -5.49644,2.90182 -10.3269,7.1775 -14.49219,12.82813 -4.16587,5.53082 -7.66663,12.37726 -10.50195,20.5371 -2.71615,8.03944 -4.58786,17.27209 -5.61524,27.69922 -0.77964,12.10306 -0.36962,22.34288 1.22852,30.72071 1.59811,8.37782 4.14687,15.19528 7.64648,20.44921 1.60596,2.33095 3.38484,4.36163 5.31836,6.125 2.49927,0.39698 5.10396,0.60112 7.82617,0.5879 6.10938,-0.0302 12.15276,-1.43633 18.12891,-4.22071 5.97562,-2.90411 11.28682,-6.94331 15.93359,-12.11719 4.76599,-5.29409 8.56741,-11.66241 11.40626,-19.10351 2.95872,-7.44159 4.41475,-15.83395 4.36914,-25.17773 1.03729,-8.39071 0.81816,-16.77581 -0.66016,-25.1543 -1.35912,-8.4988 -3.85348,-16.1523 -7.48047,-22.96289 -3.08023,-5.78387 -6.89767,-10.64868 -11.4375,-14.61133 -1.21445,-0.12393 -2.45473,-0.18585 -3.72266,-0.17969 z m 93.36915,1.51367 c -4.11378,0.0856 -8.31602,0.76816 -12.60743,2.04688 -4.78523,1.34103 -9.38853,3.28116 -13.80859,5.81836 -4.30027,2.53664 -8.23901,5.48966 -11.81641,8.86133 -3.57742,3.37166 -6.49396,6.9199 -8.75195,10.64453 l 1.81641,2.82617 c 2.6069,-2.74232 5.16924,-4.98353 7.68164,-6.69727 4.89573,-3.25833 9.31875,-5.13636 13.26953,-5.63476 4.07059,-0.49898 7.60838,0.0835 10.61133,1.74609 3.00238,1.54269 5.22937,3.62746 6.67968,6.25586 0.0653,0.10441 0.11942,0.2129 0.18164,0.31836 0.18027,-0.0281 0.36463,-0.0693 0.54297,-0.0918 4.07058,-0.49899 7.60837,0.0836 10.61133,1.7461 3.00238,1.5427 5.2274,3.62745 6.67774,6.25586 1.56953,2.50804 2.242,5.31978 2.01757,8.43554 -0.225,2.99596 -1.52795,5.69796 -3.91211,8.10547 l -51.26562,62.96289 2.16406,7.5586 63.0918,-0.74024 -1.23242,-16.99023 -28.8418,2.27344 c 3.35703,-3.56378 6.50356,-7.00996 9.54883,-10.4004 l -27.56446,2.17188 c 9.29594,-9.86838 17.39614,-19.07232 24.30274,-27.61133 6.90652,-8.53897 12.01842,-16.58905 15.33594,-24.15234 3.43657,-7.68352 4.83923,-14.93849 4.20703,-21.76367 -0.63281,-6.94504 -3.84045,-13.75719 -9.62305,-20.4375 -0.97897,-1.1365 -1.99938,-2.1733 -3.05273,-3.13086 -1.47887,-0.21329 -2.97937,-0.34623 -4.50586,-0.37696 -0.58406,-0.0121 -1.17014,-0.0122 -1.75781,0 z m -188.12891,0.91602 c -4.11377,0.0856 -8.31602,0.76816 -12.60742,2.04687 -4.78524,1.34103 -9.38854,3.27921 -13.8086,5.81641 -4.30027,2.53664 -8.239,5.49162 -11.8164,8.86328 -3.57743,3.37167 -6.49397,6.91991 -8.75196,10.64453 l 1.81641,2.82617 c 2.6069,-2.74231 5.16922,-4.9835 7.68164,-6.69726 4.89574,-3.25829 9.31872,-5.13636 13.26953,-5.63477 4.07055,-0.49901 7.60838,0.0835 10.61133,1.7461 3.00238,1.54269 5.22937,3.62746 6.67969,6.25586 0.0653,0.1044 0.11941,0.2129 0.18164,0.31836 0.18027,-0.0281 0.36462,-0.0693 0.54297,-0.0918 4.07057,-0.499 7.60837,0.0836 10.61132,1.74609 3.00239,1.54271 5.22741,3.62745 6.67774,6.25586 1.56954,2.50805 2.24201,5.31978 2.01758,8.43555 -0.22501,2.99596 -1.52992,5.69796 -3.91406,8.10547 l -51.26368,62.96289 2.16407,7.55859 63.09179,-0.74023 -1.23242,-16.99024 -28.8418,2.27344 c 3.35704,-3.56377 6.50356,-7.00996 9.54883,-10.40039 l -27.56445,2.17188 c 9.29594,-9.86839 17.39621,-19.07221 24.30273,-27.61133 6.90648,-8.53901 12.0185,-16.58917 15.33594,-24.15235 3.43661,-7.68362 4.83927,-14.93845 4.20703,-21.76367 -0.63277,-6.94499 -3.84044,-13.75718 -9.62304,-20.4375 -0.97898,-1.1365 -1.99939,-2.1733 -3.05274,-3.13086 -1.47887,-0.21329 -2.97936,-0.34623 -4.50586,-0.37695 -0.58406,-0.0121 -1.17013,-0.0122 -1.75781,0 z m 261.66015,4.06445 -31.81054,23.2168 2.65625,5.24609 7.93945,-5.34765 -0.55664,19.93554 0.30274,0.59961 18.26953,-12.30664 -2.36914,84.77344 2.95507,-0.0137 z m -43.39257,10.29297 -6.4336,4.69531 10.3418,20.4336 2.9043,-1.95703 c 0.17728,-2.1277 0.19381,-4.22129 0.004,-6.27149 -0.5215,-5.7236 -2.7972,-11.35668 -6.8164,-16.90039 z m -93.3711,1.17969 c -0.62797,0.88583 -1.21788,1.78271 -1.76757,2.68945 l 10.19531,15.85156 c -1.37125,-4.8125 -3.1641,-9.31103 -5.38867,-13.48828 -0.94327,-1.77121 -1.95883,-3.45224 -3.03907,-5.05273 z m -49.55273,1.57226 c 1.48811,0.0113 3.0195,0.21287 4.59375,0.60938 4.8599,1.23163 8.61032,3.81823 11.26172,7.75 0.71002,-0.0886 1.42939,-0.13558 2.16015,-0.13086 1.48812,0.01 3.01951,0.21273 4.59375,0.60937 6.95665,1.76303 11.65062,6.29225 14.08203,13.5879 2.43085,7.17583 2.90019,17.47613 1.40821,30.90039 -0.46282,3.35649 -1.58232,7.07458 -3.35938,11.15625 -1.77706,4.08166 -3.97469,7.80682 -6.59375,11.17382 -2.49988,3.24662 -5.36284,5.83516 -8.58789,7.76758 -3.10523,1.93185 -6.27715,2.48684 -9.51562,1.66406 -2.39877,-0.5873 -4.85941,-1.47446 -7.38086,-2.66015 -2.23727,-1.10504 -4.21532,-2.89461 -5.93945,-5.35352 -1.54964,0.25518 -3.11393,0.18695 -4.69532,-0.21484 -2.39879,-0.5873 -4.85743,-1.47444 -7.3789,-2.66016 -2.40167,-1.18631 -4.50808,-3.15197 -6.31836,-5.89843 -1.81089,-2.86621 -3.14732,-6.75278 -4.00977,-11.66016 -0.86313,-5.02723 -0.89668,-11.61572 -0.0976,-19.76563 0.21467,-5.15229 1.149,-10.12792 2.80273,-14.92773 1.65377,-4.79981 3.78975,-8.94288 6.4082,-12.42969 2.73774,-3.6071 5.90073,-6.2585 9.48633,-7.95312 2.24096,-1.0591 4.59988,-1.58056 7.08008,-1.56446 z m -40.3418,6.91993 c -0.41102,1.06318 -0.81089,2.14583 -1.19726,3.25781 -2.71616,8.03939 -4.58789,17.27214 -5.61524,27.69922 -0.18645,2.89445 -0.301,5.67413 -0.35156,8.35547 1.92456,-3.21262 3.5707,-6.35055 4.91016,-9.4043 3.43662,-7.68355 4.83924,-14.93845 4.20703,-21.76367 -0.24925,-2.73544 -0.90499,-5.45025 -1.95313,-8.14453 z m 4.26953,78.0332 -4.39453,0.3457 c 0.68384,1.32206 1.40779,2.58041 2.18555,3.74805 0.87183,1.26542 1.79333,2.44108 2.76172,3.53906 z" style="font-style:normal;font-variant:normal;font-weight:normal;font-stretch:normal;font-size:47.5429px;line-height:1.25;font-family:'Shark Random Funnyness 2';-inkscape-font-specification:'Shark Random Funnyness 2, Normal';font-variant-ligatures:normal;font-variant-caps:normal;font-variant-numeric:normal;font-variant-east-asian:normal;text-align:end;letter-spacing:0.466744px;text-anchor:end;fill:#ffff00;fill-opacity:1;stroke-width:4.49227" id="path4125"/>
    </g>
    <g id="g4563" transform="matrix(0.90515621,0,0,0.90515621,-71.580291,-267.17496)">
      <path id="path4545" style="font-style:normal;font-variant:normal;font-weight:normal;font-stretch:normal;font-size:55.9355px;line-height:1.25;font-family:'Shark Random Funnyness 2';-inkscape-font-specification:'Shark Random Funnyness 2, Normal';font-variant-ligatures:normal;font-variant-caps:normal;font-variant-numeric:normal;font-variant-east-asian:normal;text-align:end;letter-spacing:0.549137px;text-anchor:end;fill:#ffff00;stroke-width:1.39765" d="m 197.37617,372.07859 -0.72672,24.71043 c -0.18634,1.67718 -0.55914,3.14934 -1.11821,4.41652 -0.55905,1.26721 -1.22956,2.27347 -2.01223,3.01888 -0.78269,0.70816 -1.63985,1.13646 -2.5716,1.28556 -0.89449,0.11181 -1.77068,-0.13033 -2.62791,-0.72671 -0.85722,-0.6336 -1.63982,-1.63986 -2.34796,-3.01889 -0.70814,-1.41628 -1.24855,-3.27972 -1.62126,-5.59047 l -1.00611,-23.25704 -6.82077,0.33571 c 0,0.0373 0.019,0.72678 0.0562,2.06854 0.0372,1.30447 0.0927,2.96274 0.16725,4.97536 0.0745,2.01259 0.14907,4.17426 0.22365,6.48504 0.0745,2.31078 0.14906,4.45394 0.22363,6.42926 0.0745,1.97534 0.14907,3.61562 0.22364,4.9201 0.0745,1.30446 0.14907,1.93796 0.22365,1.90068 0.55907,2.94438 1.26711,5.32973 2.12431,7.15597 0.85724,1.78898 1.845,3.18655 2.96312,4.19287 1.11811,1.00633 2.36658,1.71434 3.74558,2.12432 1.37901,0.37271 2.87018,0.6149 4.47281,0.7267 1.78898,0.18636 3.35418,0.0187 4.69591,-0.50306 1.34176,-0.55904 2.51567,-1.36016 3.52196,-2.40377 1.00631,-1.04355 1.82645,-2.23647 2.46005,-3.57821 0.67086,-1.37903 1.21128,-2.77662 1.62124,-4.19288 0.40999,-1.41628 0.70821,-2.79534 0.89459,-4.13708 0.18634,-1.37901 0.29791,-2.57141 0.33519,-3.57772 v -1.62129 c 0.0373,-1.11811 0.0747,-2.51565 0.11198,-4.19284 0.0373,-1.71445 0.0559,-3.57841 0.0559,-5.59101 0.0373,-2.01263 0.0559,-3.87605 0.0559,-5.59047 0.0373,-1.71447 0.0373,-3.13057 0,-4.24864 0,-1.15543 -0.0369,-1.73337 -0.11163,-1.73337 z m -47.27436,0.7267 0.61515,42.37649 7.26753,-1.34133 -0.7267,-18.84055 17.3866,19.79089 1.1182,-39.46967 -6.87655,-2.2364 -0.11163,22.97763 z m 55.91935,1.174 0.89457,40.30792 5.92623,-0.95036 0.72668,-37.62422 z m 37.34381,0.0559 -28.2324,1.56548 -0.78301,8.77724 10.67793,-0.67092 -1.28555,30.63666 8.16211,0.0559 0.61512,-31.13973 10.007,-0.72669 z"/>
      <path d="m 199.14991,377.99687 -0.68939,20.09404 c -0.17707,1.36385 -0.53044,2.56098 -1.06079,3.59142 -0.53033,1.03049 -1.16643,1.84875 -1.90891,2.45492 -0.7425,0.57584 -1.55563,0.92413 -2.43953,1.0454 -0.84855,0.0909 -1.67974,-0.10611 -2.49294,-0.59095 -0.8132,-0.51527 -1.55565,-1.33352 -2.22739,-2.45491 -0.67179,-1.1517 -1.18445,-2.66701 -1.53802,-4.54607 l -0.95443,-18.91218 -6.47048,0.27299 c 0,0.0303 0.0161,0.59102 0.0531,1.68209 0.0355,1.0608 0.0879,2.40923 0.15871,4.04587 0.0708,1.6366 0.1414,3.39444 0.21217,5.27353 0.0708,1.87906 0.1414,3.62185 0.21212,5.22814 0.0708,1.60632 0.14141,2.94016 0.21218,4.00095 0.0708,1.06075 0.1414,1.57588 0.21217,1.54558 0.53034,2.39431 1.20204,4.33402 2.01521,5.81909 0.8132,1.45476 1.75026,2.59125 2.81094,3.40958 1.06069,0.81831 2.24504,1.39407 3.55325,1.72744 1.3082,0.3031 2.72279,0.50003 4.2431,0.59093 1.69711,0.15157 3.18195,0.0143 4.45478,-0.40906 1.27284,-0.45462 2.38645,-1.10606 3.34105,-1.9547 0.95464,-0.84861 1.73269,-1.81866 2.33375,-2.90973 0.6364,-1.12141 1.14909,-2.25789 1.53797,-3.40959 0.38893,-1.15168 0.67186,-2.27312 0.84868,-3.36418 0.17652,-1.12139 0.28259,-2.09101 0.31794,-2.90933 v -1.3184 c 0.0353,-0.90925 0.071,-2.0457 0.10628,-3.40955 0.0352,-1.39416 0.0528,-2.90988 0.0528,-4.5465 0.0354,-1.63664 0.0528,-3.15194 0.0528,-4.54608 0.0352,-1.39416 0.0352,-2.54569 0,-3.45491 0,-0.93956 -0.0351,-1.40954 -0.10592,-1.40954 z m -44.84662,0.59092 0.58356,34.45976 6.89432,-1.09073 -0.68942,-15.32079 16.49376,16.09358 1.06076,-32.09599 -6.52343,-1.81858 -0.10592,18.68496 z m 53.04768,0.95468 0.84862,32.77764 5.62187,-0.77281 0.68935,-30.59532 z m 35.42602,0.0453 -26.78253,1.27299 -0.74282,7.1375 10.12959,-0.54559 -1.21953,24.91315 7.74294,0.0453 0.58355,-25.32223 9.49309,-0.59092 z" style="font-style:normal;font-variant:normal;font-weight:normal;font-stretch:normal;font-size:55.9355px;line-height:1.25;font-family:'Shark Random Funnyness 2';-inkscape-font-specification:'Shark Random Funnyness 2, Normal';font-variant-ligatures:normal;font-variant-caps:normal;font-variant-numeric:normal;font-variant-east-asian:normal;text-align:end;letter-spacing:0.549137px;text-anchor:end;fill:#800080;fill-opacity:1;stroke-width:1.22756" id="path4547"/>
      <path d="m 204.22575,375.39927 -0.72672,24.71044 c -0.18633,1.67719 -0.55913,3.14933 -1.1182,4.41651 -0.55905,1.26722 -1.22957,2.27349 -2.01224,3.01889 -0.78268,0.70816 -1.63984,1.13645 -2.57159,1.28557 -0.8945,0.11179 -1.77068,-0.13035 -2.6279,-0.72673 -0.85723,-0.63359 -1.63983,-1.63985 -2.34797,-3.01887 -0.70814,-1.41628 -1.24855,-3.27973 -1.62127,-5.59048 l -1.00611,-23.25704 -6.82077,0.3357 c 0,0.0373 0.0191,0.72679 0.0562,2.06855 0.0373,1.30447 0.0927,2.96273 0.16724,4.97537 0.0745,2.01258 0.14908,4.17424 0.22365,6.48503 0.0745,2.31079 0.14907,4.45394 0.22364,6.42926 0.0745,1.97534 0.14908,3.61561 0.22364,4.9201 0.0745,1.30445 0.14907,1.93795 0.22364,1.90069 0.55907,2.94436 1.26711,5.32972 2.12433,7.15596 0.85722,1.78898 1.84499,3.18655 2.9631,4.19287 1.11813,1.00632 2.36658,1.71434 3.74559,2.12432 1.37901,0.37271 2.87017,0.61489 4.47281,0.7267 1.78898,0.18635 3.35418,0.0187 4.69593,-0.50306 1.34173,-0.55905 2.51564,-1.36017 3.52194,-2.40376 1.00631,-1.04357 1.82644,-2.23649 2.46005,-3.57822 0.67085,-1.37903 1.21129,-2.77661 1.62125,-4.19288 0.40997,-1.41628 0.7082,-2.79535 0.89458,-4.13708 0.18633,-1.37901 0.29791,-2.57141 0.33519,-3.57773 v -1.62128 c 0.0374,-1.11811 0.0747,-2.51566 0.11198,-4.19285 0.0374,-1.71445 0.0559,-3.57839 0.0559,-5.591 0.0374,-2.01263 0.0559,-3.87605 0.0559,-5.59048 0.0373,-1.71447 0.0373,-3.13056 0,-4.24864 0,-1.15542 -0.0369,-1.73335 -0.11163,-1.73335 z m -47.27435,0.7267 0.61514,42.37649 7.26754,-1.34132 -0.7267,-18.84054 17.3866,19.79087 1.11821,-39.46966 -6.87656,-2.2364 -0.11163,22.97762 z m 55.91936,1.17401 0.89456,40.30791 5.92622,-0.95035 0.72669,-37.62423 z m 37.34379,0.0559 -28.2324,1.56547 -0.783,8.77724 10.67792,-0.67092 -1.28552,30.63667 8.16209,0.0559 0.61512,-31.13972 10.007,-0.72669 z" style="font-style:normal;font-variant:normal;font-weight:normal;font-stretch:normal;font-size:55.93549999999999756px;line-height:1.25;font-family:'Shark Random Funnyness 2';-inkscape-font-specification:'Shark Random Funnyness 2, Normal';font-variant-ligatures:normal;font-variant-caps:normal;font-variant-numeric:normal;font-variant-east-asian:normal;text-align:end;letter-spacing:0.54913699999999999px;text-anchor:end;fill:#133571;fill-opacity:1;stroke-width:1.39765" id="path4541"/>
      <path d="m 204.13501,378.46104 -0.63583,21.64888 c -0.18631,1.67715 -0.55959,3.14938 -1.11866,4.41654 -0.55902,1.26723 -1.22886,2.27331 -2.01151,3.01869 -0.7827,0.70816 -1.64008,1.13635 -2.57182,1.28544 -0.89452,0.11181 -1.7708,-0.13071 -2.628,-0.72703 -0.83313,-0.61577 -1.59479,-1.59005 -2.2871,-2.90999 -0.7898,0.049 -1.56491,-0.14925 -2.32392,-0.60166 -0.81319,-0.51528 -1.5554,-1.33342 -2.22717,-2.45481 -0.67178,-1.15169 -1.18433,-2.66745 -1.53789,-4.54648 l -0.95467,-18.91206 -2.40499,0.10125 c 0.0374,1.28736 0.0906,2.88097 0.16315,4.83766 0.0745,2.0126 0.14925,4.17354 0.22391,6.48436 0.0745,2.31076 0.14836,4.45461 0.22297,6.42996 0.0745,1.97532 0.14943,3.61516 0.22396,4.91965 0.0745,1.30446 0.14924,1.93826 0.2239,1.90099 0.55907,2.94436 1.26677,5.32983 2.12396,7.15608 0.0724,0.15085 0.14692,0.29509 0.22117,0.44045 0.62286,0.31214 1.27973,0.55799 1.97194,0.73439 1.30817,0.30314 2.72206,0.50067 4.24237,0.59157 1.69712,0.15157 3.18244,0.0143 4.45527,-0.40912 1.27284,-0.45463 2.38664,-1.10671 3.34121,-1.95533 0.95468,-0.84862 1.73209,-1.81798 2.33314,-2.90905 0.63645,-1.12139 1.14904,-2.25773 1.53792,-3.40942 0.38896,-1.15168 0.67189,-2.27317 0.84867,-3.36424 0.17654,-1.12139 0.28256,-2.09166 0.31793,-2.90999 v -1.31769 c 0.0352,-0.90923 0.0715,-2.04648 0.10682,-3.41033 0.0352,-1.39413 0.0526,-2.9099 0.0526,-4.54649 0.0354,-1.63662 0.0525,-3.15144 0.0525,-4.54558 0.0353,-1.39413 0.0353,-2.54624 0,-3.45547 0,-0.93957 -0.0351,-1.40889 -0.10593,-1.40889 z m -21.52719,0.35385 -3.23986,0.13642 c 0,0.0303 0.0161,0.59153 0.0535,1.68259 0.0355,1.06076 0.0877,2.40857 0.15851,4.04521 0.0708,1.63662 0.14123,3.39446 0.21194,5.27355 0.0708,1.87903 0.14123,3.62206 0.21192,5.22835 0.0708,1.60631 0.14212,2.9402 0.21287,4.001 0.0708,1.06074 0.14122,1.5756 0.21194,1.54531 0.39666,1.79072 0.87252,3.32699 1.42734,4.60914 z m 24.7431,0.72797 0.83113,32.08624 c 0.0986,-0.1865 0.20206,-0.36946 0.29304,-0.56208 0.67084,-1.37905 1.21087,-2.77638 1.62088,-4.19269 0.40992,-1.41626 0.70832,-2.79559 0.89468,-4.13736 0.18635,-1.379 0.29813,-2.57171 0.33545,-3.57805 v -1.62082 c 0.0373,-1.11814 0.0742,-2.51548 0.11145,-4.19264 0.0372,-1.71448 0.0562,-3.57884 0.0562,-5.59145 0.0373,-2.01261 0.0552,-3.87607 0.0552,-5.5905 0.0143,-0.6537 0.0187,-1.22343 0.0221,-1.79038 z m 35.42648,0.0451 -20.94387,0.99521 -0.63215,7.09433 2.32116,-0.12448 8.35489,-0.52523 -1.06519,25.37708 1.09285,0.007 0.58326,-25.32272 6.87871,-0.42753 0.002,-0.0811 2.62525,-0.19075 z m -67.05845,0.22944 -0.0949,19.5654 -3.59276,-4.47458 -0.0143,2.59206 -14.98668,-16.00118 0.45154,31.13802 4.2995,-0.68003 -0.68924,-15.32114 3.06663,2.99198 -0.0507,-1.30756 7.7366,8.8064 5.7416,5.60249 1.06063,-32.09544 z m 37.22615,0.82658 0.68648,30.92883 0.1898,-0.0259 0.68929,-30.59528 z m 7.4417,0.01 -4.39259,0.20823 -0.7427,7.13766 4.99894,-0.26907 z" style="font-style:normal;font-variant:normal;font-weight:normal;font-stretch:normal;font-size:55.9355px;line-height:1.25;font-family:'Shark Random Funnyness 2';-inkscape-font-specification:'Shark Random Funnyness 2, Normal';font-variant-ligatures:normal;font-variant-caps:normal;font-variant-numeric:normal;font-variant-east-asian:normal;text-align:end;letter-spacing:0.549137px;text-anchor:end;fill:#ff00ff;fill-opacity:1;stroke-width:1.22756" id="path4554"/>
    </g>
    <path transform="matrix(0.26458333,0,0,0.26458333,43.681445,10.655518)" d="M 363.99023 153.22266 L 357.28125 197.71875 L 357.0957 190.4082 L 333.62305 198.07617 L 326.52734 157.79883 L 319.17578 163.63086 L 327.16016 210.86328 L 356.77734 201.06055 L 356.26758 204.44336 L 367.7207 204.38867 L 367.7832 189.95898 L 381.07422 189.83398 L 387.91211 201.16602 L 398.10742 196.94922 L 371.48828 153.875 L 363.99023 153.22266 z M 370.25195 167.90039 L 376.95898 180.73047 L 368.88281 180.17188 L 370.25195 167.90039 z " style="font-style:normal;font-variant:normal;font-weight:normal;font-stretch:normal;font-size:19.3201px;line-height:1.25;font-family:'Shark Random Funnyness 2';-inkscape-font-specification:'Shark Random Funnyness 2, Normal';font-variant-ligatures:normal;font-variant-caps:normal;font-variant-numeric:normal;font-variant-east-asian:normal;text-align:end;text-anchor:end;fill:#ffff00;stroke-width:1.82553" id="path5765"/>
    <g id="g5782">
      <path d="m 81.677772,119.34339 0.557097,38.37815 6.582214,-1.21521 -0.658601,-17.06268 15.746428,17.92334 1.01221,-35.74517 -6.22719,-2.02538 -0.101505,20.80937 z m 60.348018,0.40508 c -1.8227,0 -3.51028,0.42188 -5.06296,1.26572 -1.55266,0.8101 -2.91985,2.00826 -4.10125,3.59469 -1.18136,1.55266 -2.17699,3.47681 -2.98705,5.77207 -0.77635,2.26148 -1.31653,4.86039 -1.62031,7.79696 -0.23627,3.4091 -0.13476,6.29535 0.30405,8.65811 0.43879,2.36275 1.14753,4.28642 2.1264,5.77159 1.0126,1.48515 2.26154,2.5655 3.74668,3.24058 1.48517,0.67507 3.15599,1.01223 5.01244,1.01223 1.72143,0 3.4258,-0.38793 5.11348,-1.16426 1.68768,-0.81007 3.18993,-1.94072 4.50632,-3.39212 1.35015,-1.48517 2.43003,-3.27428 3.24013,-5.36701 0.84384,-2.0927 1.26572,-4.45553 1.26572,-7.0883 0.3038,-2.36276 0.2535,-4.72558 -0.15155,-7.08833 -0.37128,-2.3965 -1.06326,-4.55677 -2.07587,-6.48071 -1.0126,-1.92395 -2.31231,-3.49326 -3.89871,-4.7084 -1.55268,-1.21512 -3.35855,-1.82282 -5.41752,-1.82282 z m -12.42024,0.10149 -23.54338,2.27843 0.91166,34.83352 6.22718,-0.96217 -0.35408,-14.48022 9.26524,-0.65811 0.81014,-6.02512 -10.32891,0.65811 -0.25305,-7.29038 16.04999,-1.21522 z m -56.229445,0.55662 0.810151,36.50482 5.366517,-0.86067 0.65813,-34.07437 z m 68.217005,7.16363 c 0.4193,0.005 0.85033,0.0638 1.29334,0.17775 1.9577,0.50631 3.27418,1.78922 3.94925,3.84821 0.67505,2.02521 0.79333,4.92776 0.35454,8.70814 -0.135,0.94509 -0.45587,1.99147 -0.96218,3.13908 -0.5063,1.14763 -1.13076,2.19398 -1.87333,3.1391 -0.70881,0.91133 -1.51862,1.63732 -2.42997,2.17739 -0.87758,0.54006 -1.77215,0.69186 -2.68351,0.45559 -0.67506,-0.16877 -1.36704,-0.42211 -2.07588,-0.75964 -0.67508,-0.33754 -1.26554,-0.89447 -1.77184,-1.6708 -0.5063,-0.8101 -0.87792,-1.90674 -1.11418,-3.29065 -0.23628,-1.41764 -0.23628,-3.27427 0,-5.56952 0.0675,-1.45142 0.33759,-2.85214 0.81014,-4.20229 0.47254,-1.35014 1.08024,-2.51478 1.82283,-3.49364 0.77633,-1.01262 1.67089,-1.75488 2.6835,-2.22745 0.63288,-0.29533 1.29848,-0.43917 1.99729,-0.43127 z" style="font-style:normal;font-variant:normal;font-weight:normal;font-stretch:normal;font-size:55.9355px;line-height:1.25;font-family:'Shark Random Funnyness 2';-inkscape-font-specification:'Shark Random Funnyness 2, Normal';font-variant-ligatures:normal;font-variant-caps:normal;font-variant-numeric:normal;font-variant-east-asian:normal;text-align:end;letter-spacing:0.549137px;text-anchor:end;fill:#ffff00;fill-opacity:1;stroke-width:1.26576" id="path7629"/>
      <path id="path4525" style="font-style:normal;font-variant:normal;font-weight:normal;font-stretch:normal;font-size:55.9355px;line-height:1.25;font-family:'Shark Random Funnyness 2';-inkscape-font-specification:'Shark Random Funnyness 2, Normal';font-variant-ligatures:normal;font-variant-caps:normal;font-variant-numeric:normal;font-variant-east-asian:normal;text-align:end;letter-spacing:0.549137px;text-anchor:end;fill:#0000ff;fill-opacity:1;stroke-width:1.26576" d="m 79.440063,115.61388 0.557097,38.37815 6.582214,-1.21522 -0.658601,-17.06267 15.746427,17.92333 1.01221,-35.74516 -6.227189,-2.02539 -0.101505,20.80937 z m 60.348027,0.40507 c -1.82271,0 -3.51029,0.42189 -5.06297,1.26573 -1.55266,0.81009 -2.91985,2.00826 -4.10125,3.59468 -1.18136,1.55266 -2.17698,3.47681 -2.98705,5.77207 -0.77635,2.26148 -1.31653,4.86039 -1.62031,7.79696 -0.23627,3.4091 -0.13476,6.29536 0.30405,8.65811 0.43879,2.36276 1.14754,4.28642 2.1264,5.7716 1.01261,1.48514 2.26154,2.5655 3.74668,3.24057 1.48518,0.67508 3.15599,1.01223 5.01244,1.01223 1.72143,0 3.4258,-0.38792 5.11348,-1.16426 1.68769,-0.81007 3.18993,-1.94072 4.50632,-3.39212 1.35015,-1.48517 2.43003,-3.27427 3.24013,-5.367 0.84384,-2.0927 1.26572,-4.45553 1.26572,-7.08831 0.3038,-2.36275 0.2535,-4.72557 -0.15155,-7.08833 -0.37127,-2.39649 -1.06326,-4.55676 -2.07586,-6.4807 -1.01261,-1.92396 -2.31232,-3.49326 -3.89872,-4.70841 -1.55268,-1.21511 -3.35855,-1.82282 -5.41751,-1.82282 z m -12.42025,0.1015 -23.54338,2.27843 0.91166,34.83352 6.22718,-0.96218 -0.35408,-14.48021 9.26524,-0.65812 0.81014,-6.02511 -10.32891,0.65811 -0.25305,-7.29038 16.04999,-1.21522 z m -56.229444,0.55661 0.810151,36.50483 5.366517,-0.86068 0.65813,-34.07436 z m 68.217004,7.16364 c 0.4193,0.005 0.85033,0.0638 1.29334,0.17774 1.9577,0.50631 3.27418,1.78922 3.94926,3.84821 0.67504,2.02522 0.79332,4.92776 0.35453,8.70815 -0.135,0.94509 -0.45587,1.99147 -0.96218,3.13908 -0.50629,1.14763 -1.13076,2.19398 -1.87332,3.1391 -0.70882,0.91133 -1.51863,1.63732 -2.42998,2.17739 -0.87758,0.54005 -1.77215,0.69185 -2.68351,0.45558 -0.67506,-0.16877 -1.36704,-0.4221 -2.07588,-0.75963 -0.67508,-0.33755 -1.26554,-0.89448 -1.77184,-1.6708 -0.5063,-0.8101 -0.87792,-1.90674 -1.11418,-3.29065 -0.23628,-1.41764 -0.23628,-3.27428 0,-5.56952 0.0675,-1.45143 0.33759,-2.85215 0.81014,-4.2023 0.47254,-1.35014 1.08024,-2.51477 1.82283,-3.49364 0.77633,-1.01261 1.6709,-1.75488 2.6835,-2.22744 0.63288,-0.29534 1.29849,-0.43917 1.99729,-0.43127 z"/>
      <path d="m 73.725601,115.46049 0.556557,38.37802 6.582026,-1.21543 -0.657839,-17.06252 15.745807,17.92345 1.012859,-35.7451 -6.227527,-2.02521 -0.101285,20.80907 z m 60.347739,0.40514 c -1.82269,0 -3.51008,0.42172 -5.06274,1.26556 -1.55266,0.81008 -2.92018,2.00871 -4.10156,3.59513 -1.18137,1.55266 -2.17681,3.47649 -2.9869,5.77174 -0.77633,2.26148 -1.31627,4.86038 -1.62005,7.79694 -0.23628,3.40911 -0.13495,6.29512 0.30385,8.65787 0.4388,2.36275 1.14763,4.28658 2.12649,5.77174 1.0126,1.48516 2.26139,2.56556 3.74654,3.24063 1.48516,0.67507 3.15565,1.01234 5.0121,1.01234 1.72143,0 3.42622,-0.38794 5.1139,-1.16427 1.68768,-0.81009 3.1898,-1.94116 4.50618,-3.39256 1.35014,-1.48515 2.43002,-3.27387 3.24012,-5.36659 0.84383,-2.09273 1.26607,-4.45568 1.26607,-7.08846 0.30378,-2.36275 0.25311,-4.72519 -0.15193,-7.08794 -0.37129,-2.3965 -1.06323,-4.55679 -2.07584,-6.48074 -1.01261,-1.92395 -2.31257,-3.49363 -3.89899,-4.70876 -1.55266,-1.21513 -3.35827,-1.82263 -5.41724,-1.82263 z m -12.42043,0.10129 -23.543267,2.27841 0.911572,34.83354 6.227525,-0.96222 -0.3545,-14.48025 9.26559,-0.65784 0.80977,-6.02496 -10.32857,0.65784 -0.25322,-7.29051 16.05019,-1.21543 z m -56.229643,0.55707 0.810286,36.50423 5.366598,-0.86093 0.658357,-34.07389 z m 68.217543,7.16339 c 0.41928,0.005 0.85044,0.0639 1.29346,0.17777 1.95771,0.5063 3.27404,1.78885 3.94911,3.84782 0.67507,2.02522 0.7933,4.92812 0.3545,8.70852 -0.13501,0.9451 -0.45591,1.99121 -0.96221,3.13882 -0.50631,1.14762 -1.1307,2.19424 -1.87327,3.13934 -0.70883,0.91135 -1.519,1.63707 -2.43035,2.17713 -0.87759,0.54006 -1.77221,0.69207 -2.68355,0.45579 -0.67507,-0.16877 -1.36702,-0.42211 -2.07585,-0.75964 -0.67507,-0.33754 -1.26568,-0.89438 -1.77198,-1.6707 -0.5063,-0.81009 -0.87735,-1.90738 -1.11363,-3.29128 -0.23627,-1.41764 -0.23627,-3.27392 0,-5.56916 0.0675,-1.45141 0.33722,-2.85219 0.80977,-4.20233 0.47255,-1.35015 1.08057,-2.51447 1.82315,-3.49333 0.77633,-1.01261 1.67043,-1.75522 2.68304,-2.22777 0.63287,-0.29535 1.299,-0.43889 1.99781,-0.43098 z" style="font-style:normal;font-variant:normal;font-weight:normal;font-stretch:normal;font-size:55.9355px;line-height:1.25;font-family:'Shark Random Funnyness 2';-inkscape-font-specification:'Shark Random Funnyness 2, Normal';font-variant-ligatures:normal;font-variant-caps:normal;font-variant-numeric:normal;font-variant-east-asian:normal;text-align:end;letter-spacing:0.549137px;text-anchor:end;fill:#00ffff;fill-opacity:1;stroke-width:1.26576" id="path5737"/>
      <path d="m 137.07531,116.35846 c -0.81477,0.21073 -1.59845,0.5177 -2.34999,0.92615 -1.55266,0.8101 -2.91985,2.00824 -4.10125,3.59467 -1.18136,1.55265 -2.17699,3.4768 -2.98706,5.77207 -0.77635,2.26147 -1.31652,4.86038 -1.62031,7.79695 -0.23626,3.40911 -0.13476,6.29537 0.30406,8.65811 0.43879,2.36276 1.14753,4.28643 2.1264,5.7716 1.0126,1.48515 2.26154,2.56551 3.74668,3.24058 0.54073,0.24579 1.10661,0.4453 1.69655,0.60155 0.90951,-0.19318 1.81439,-0.49299 2.71437,-0.90699 1.68768,-0.81005 3.18992,-1.94073 4.50632,-3.39213 1.35015,-1.48517 2.43003,-3.27428 3.24012,-5.36701 0.84385,-2.0927 1.26573,-4.45552 1.26573,-7.0883 0.30382,-2.36276 0.2535,-4.72558 -0.15155,-7.08833 -0.37128,-2.3965 -1.06326,-4.55676 -2.07587,-6.4807 -1.01261,-1.92396 -2.31232,-3.49327 -3.89871,-4.70841 -0.74645,-0.58413 -1.55207,-1.02645 -2.41549,-1.32981 z m -15.54435,0.32695 -17.7063,1.71338 0.88452,33.8012 0.53932,-0.0833 -0.35409,-14.48021 9.26525,-0.65812 0.73998,-5.50311 -4.54375,0.28954 -0.0177,-0.51641 -5.69723,0.36298 -0.25305,-7.29039 16.04999,-1.21522 z m -47.779505,0.59171 0.51593,35.53283 3.047878,-0.48883 0.610881,-31.62847 -2.418279,-3.01233 z m 22.692538,0.29234 -0.09308,19.10677 -5.681322,-7.07617 -0.03367,6.92273 -11.092744,-13.816 0.436874,30.07976 0.884519,-0.16323 -0.658592,-17.06269 5.971325,6.7969 -0.256322,-6.64347 10.205889,11.61664 0.83774,-29.5919 z m 6.024657,0.254 -4.358989,0.42191 0.845697,32.30485 1.963632,2.23539 0.77599,-0.11974 0.98462,-34.77365 z m -31.304331,0.0187 0.587492,26.47244 0.50658,-26.22127 z m 55.794911,0.68058 c -0.73562,0.62519 -1.42017,1.35713 -2.05017,2.20311 -0.62049,0.81553 -1.18829,1.73649 -1.70636,2.75693 l 2.95012,-0.22359 z m 6.68137,5.16444 c 0.4193,0.005 0.85033,0.0638 1.29334,0.17775 0.65666,0.16985 1.23935,0.42912 1.75174,0.77367 0.2183,-0.13555 0.4421,-0.25913 0.67263,-0.36673 0.63288,-0.29531 1.29848,-0.43915 1.99729,-0.43125 0.4193,0.005 0.85033,0.0638 1.29334,0.17775 1.9577,0.5063 3.27415,1.7892 3.94923,3.84819 0.67504,2.02521 0.79335,4.92775 0.35456,8.70813 -0.135,0.9451 -0.45587,1.9915 -0.96218,3.13911 -0.5063,1.14763 -1.13076,2.19396 -1.87333,3.13908 -0.70883,0.91133 -1.51862,1.63732 -2.42997,2.17739 -0.87758,0.54005 -1.77215,0.69186 -2.68351,0.45558 -0.67506,-0.16877 -1.36704,-0.4221 -2.07589,-0.75961 -0.13147,-0.0657 -0.25896,-0.14216 -0.38401,-0.22452 -0.18621,0.13299 -0.37603,0.25922 -0.5716,0.37514 -0.87758,0.54004 -1.77214,0.69185 -2.6835,0.45557 -0.67507,-0.16876 -1.36705,-0.4221 -2.07589,-0.75963 -0.67507,-0.33753 -1.26553,-0.89447 -1.77184,-1.67079 -0.50631,-0.8101 -0.87792,-1.90675 -1.11417,-3.29066 -0.23628,-1.41763 -0.23628,-3.27428 0,-5.56952 0.0675,-1.45142 0.33759,-2.85215 0.81014,-4.20229 0.47254,-1.35015 1.08024,-2.51478 1.82282,-3.49365 0.77634,-1.0126 1.6709,-1.75488 2.68351,-2.22744 0.63288,-0.29534 1.29848,-0.43917 1.99729,-0.43127 z" style="font-style:normal;font-variant:normal;font-weight:normal;font-stretch:normal;font-size:55.9355px;line-height:1.25;font-family:'Shark Random Funnyness 2';-inkscape-font-specification:'Shark Random Funnyness 2, Normal';font-variant-ligatures:normal;font-variant-caps:normal;font-variant-numeric:normal;font-variant-east-asian:normal;text-align:end;letter-spacing:0.549137px;text-anchor:end;fill:#133571;fill-opacity:1;stroke-width:1.26576" id="path4536"/>
    </g>
    <path transform="matrix(0.26458333,0,0,0.26458333,43.681445,10.655518)" d="M 61.423828 352.98242 L 33.847656 360.75195 L 42.746094 405.00977 L 71.138672 395.83984 L 67.019531 388.25977 L 48.511719 394.25195 L 47.509766 384.4668 L 62.277344 378.875 L 61.208984 370.24609 L 45.652344 376.49414 L 44.595703 367.05664 L 64.607422 361.45312 L 61.423828 352.98242 z M 13.386719 365.25 C 11.109117 365.28747 8.9016023 365.53341 6.765625 365.98633 C 4.6295897 366.43896 2.7001127 366.91101 0.9765625 367.40234 L 10.482422 412.52734 C 12.550237 412.35913 14.721655 411.96557 16.998047 411.3457 C 19.326836 410.75829 21.58052 409.94173 23.757812 408.89648 C 25.96771 407.79878 28.015974 406.49241 29.904297 404.97656 C 31.825227 403.40823 33.401407 401.60706 34.630859 399.57227 C 35.892927 397.48501 36.734999 395.13643 37.158203 392.52734 C 37.623927 389.90836 37.490935 387.02551 36.757812 383.87891 C 35.68619 380.04906 34.284403 376.92324 32.554688 374.50195 C 30.857591 372.02823 28.976644 370.11286 26.912109 368.75586 C 24.837668 367.35633 22.645412 366.41052 20.333984 365.91797 C 18.022556 365.42545 15.70683 365.20263 13.386719 365.25 z M 13.103516 376.10547 C 15.111189 376.10005 16.887246 376.23662 18.431641 376.51562 C 20.490826 376.88761 22.207024 377.5177 23.580078 378.4082 C 24.953135 379.29871 26.036347 380.48086 26.828125 381.95508 C 27.652523 383.37689 28.270396 385.0712 28.683594 387.03711 C 29.106651 389.04555 29.111063 390.79271 28.695312 392.2793 C 28.312179 393.71348 27.677686 394.93811 26.792969 395.95117 C 25.950777 396.95433 24.958423 397.79093 23.814453 398.46094 C 22.703106 399.07851 21.612818 399.60166 20.546875 400.0293 C 19.480912 400.45689 18.533719 400.81241 17.703125 401.0957 C 16.862581 401.33626 16.334649 401.57124 16.119141 401.80078 L 11.019531 376.1582 C 11.740231 376.12479 12.434291 376.10728 13.103516 376.10547 z M 57.09375 417.33594 L 58.767578 431.74023 L 64.630859 432.66016 L 63.875 418.44531 L 57.09375 417.33594 z M 34.517578 422.46094 L 28.308594 428.14453 L 38.441406 469.89648 L 64.826172 459.04102 L 63.927734 449.70117 L 43.412109 458.04492 L 34.517578 422.46094 z " style="font-style:normal;font-variant:normal;font-weight:normal;font-stretch:normal;font-size:17.3278px;line-height:0.95;font-family:'Shark Random Funnyness 2';-inkscape-font-specification:'Shark Random Funnyness 2, Normal';font-variant-ligatures:normal;font-variant-caps:normal;font-variant-numeric:normal;font-variant-east-asian:normal;text-align:center;text-anchor:middle;fill:#ffff00;stroke-width:1.63728" id="path5751"/>
  </g>
</svg>